<mxfile host="app.diagrams.net" modified="2024-03-19T02:41:56.401Z" agent="Mozilla/5.0 (Windows NT 10.0; Win64; x64; rv:123.0) Gecko/20100101 Firefox/123.0" etag="-UJW_SttnhEGBAo_EmeD" version="24.0.7" type="github">
  <diagram name="第 1 页" id="ZusEr--IG7KZ8trxtdcu">
    <mxGraphModel dx="1850" dy="539" grid="0" gridSize="10" guides="1" tooltips="1" connect="1" arrows="1" fold="1" page="0" pageScale="1" pageWidth="827" pageHeight="1169" math="0" shadow="0">
      <root>
        <mxCell id="0" />
        <mxCell id="1" parent="0" />
        <mxCell id="l5cotHKUDbFg4a4MN0r3-1" value="" style="shape=flexArrow;endArrow=classic;html=1;rounded=0;" edge="1" parent="1">
          <mxGeometry width="50" height="50" relative="1" as="geometry">
            <mxPoint x="-413" y="291" as="sourcePoint" />
            <mxPoint x="-357" y="291" as="targetPoint" />
          </mxGeometry>
        </mxCell>
        <mxCell id="l5cotHKUDbFg4a4MN0r3-2" value="" style="endArrow=classic;html=1;rounded=0;" edge="1" parent="1">
          <mxGeometry width="50" height="50" relative="1" as="geometry">
            <mxPoint x="-700" y="291" as="sourcePoint" />
            <mxPoint x="-700" y="252" as="targetPoint" />
          </mxGeometry>
        </mxCell>
        <mxCell id="l5cotHKUDbFg4a4MN0r3-3" value="" style="endArrow=classic;html=1;rounded=0;" edge="1" parent="1">
          <mxGeometry width="50" height="50" relative="1" as="geometry">
            <mxPoint x="-737" y="291" as="sourcePoint" />
            <mxPoint x="-455" y="291" as="targetPoint" />
          </mxGeometry>
        </mxCell>
        <mxCell id="l5cotHKUDbFg4a4MN0r3-4" value="" style="endArrow=classic;html=1;rounded=0;" edge="1" parent="1">
          <mxGeometry width="50" height="50" relative="1" as="geometry">
            <mxPoint x="-679" y="289" as="sourcePoint" />
            <mxPoint x="-679" y="250" as="targetPoint" />
          </mxGeometry>
        </mxCell>
        <mxCell id="l5cotHKUDbFg4a4MN0r3-5" value="" style="endArrow=classic;html=1;rounded=0;" edge="1" parent="1">
          <mxGeometry width="50" height="50" relative="1" as="geometry">
            <mxPoint x="-660" y="292" as="sourcePoint" />
            <mxPoint x="-660" y="253" as="targetPoint" />
          </mxGeometry>
        </mxCell>
        <mxCell id="l5cotHKUDbFg4a4MN0r3-6" value="" style="endArrow=classic;html=1;rounded=0;" edge="1" parent="1">
          <mxGeometry width="50" height="50" relative="1" as="geometry">
            <mxPoint x="-635" y="290" as="sourcePoint" />
            <mxPoint x="-635" y="322" as="targetPoint" />
          </mxGeometry>
        </mxCell>
        <mxCell id="l5cotHKUDbFg4a4MN0r3-7" value="" style="endArrow=classic;html=1;rounded=0;" edge="1" parent="1">
          <mxGeometry width="50" height="50" relative="1" as="geometry">
            <mxPoint x="-615" y="291" as="sourcePoint" />
            <mxPoint x="-615" y="323" as="targetPoint" />
          </mxGeometry>
        </mxCell>
        <mxCell id="l5cotHKUDbFg4a4MN0r3-8" value="" style="endArrow=classic;html=1;rounded=0;" edge="1" parent="1">
          <mxGeometry width="50" height="50" relative="1" as="geometry">
            <mxPoint x="-600" y="291" as="sourcePoint" />
            <mxPoint x="-600" y="323" as="targetPoint" />
          </mxGeometry>
        </mxCell>
        <mxCell id="l5cotHKUDbFg4a4MN0r3-9" value="" style="endArrow=classic;html=1;rounded=0;" edge="1" parent="1">
          <mxGeometry width="50" height="50" relative="1" as="geometry">
            <mxPoint x="-577" y="290" as="sourcePoint" />
            <mxPoint x="-577" y="251" as="targetPoint" />
          </mxGeometry>
        </mxCell>
        <mxCell id="l5cotHKUDbFg4a4MN0r3-10" value="" style="endArrow=classic;html=1;rounded=0;" edge="1" parent="1">
          <mxGeometry width="50" height="50" relative="1" as="geometry">
            <mxPoint x="-555" y="290" as="sourcePoint" />
            <mxPoint x="-555" y="251" as="targetPoint" />
          </mxGeometry>
        </mxCell>
        <mxCell id="l5cotHKUDbFg4a4MN0r3-11" value="" style="endArrow=classic;html=1;rounded=0;dashed=1;" edge="1" parent="1">
          <mxGeometry width="50" height="50" relative="1" as="geometry">
            <mxPoint x="-532" y="291" as="sourcePoint" />
            <mxPoint x="-532" y="252" as="targetPoint" />
          </mxGeometry>
        </mxCell>
        <mxCell id="l5cotHKUDbFg4a4MN0r3-12" value="" style="endArrow=classic;html=1;rounded=1;curved=0;dashed=1;" edge="1" parent="1">
          <mxGeometry width="50" height="50" relative="1" as="geometry">
            <mxPoint x="-512" y="290" as="sourcePoint" />
            <mxPoint x="-512" y="251" as="targetPoint" />
          </mxGeometry>
        </mxCell>
        <mxCell id="l5cotHKUDbFg4a4MN0r3-13" value="" style="endArrow=classic;html=1;rounded=0;" edge="1" parent="1">
          <mxGeometry width="50" height="50" relative="1" as="geometry">
            <mxPoint x="-695" y="439" as="sourcePoint" />
            <mxPoint x="-695" y="400" as="targetPoint" />
          </mxGeometry>
        </mxCell>
        <mxCell id="l5cotHKUDbFg4a4MN0r3-14" value="" style="endArrow=classic;html=1;rounded=0;" edge="1" parent="1">
          <mxGeometry width="50" height="50" relative="1" as="geometry">
            <mxPoint x="-732" y="439" as="sourcePoint" />
            <mxPoint x="-450" y="439" as="targetPoint" />
          </mxGeometry>
        </mxCell>
        <mxCell id="l5cotHKUDbFg4a4MN0r3-15" value="" style="endArrow=classic;html=1;rounded=0;dashed=1;" edge="1" parent="1">
          <mxGeometry width="50" height="50" relative="1" as="geometry">
            <mxPoint x="-674" y="437" as="sourcePoint" />
            <mxPoint x="-674" y="398" as="targetPoint" />
          </mxGeometry>
        </mxCell>
        <mxCell id="l5cotHKUDbFg4a4MN0r3-16" value="" style="endArrow=classic;html=1;rounded=0;dashed=1;" edge="1" parent="1">
          <mxGeometry width="50" height="50" relative="1" as="geometry">
            <mxPoint x="-655" y="440" as="sourcePoint" />
            <mxPoint x="-655" y="401" as="targetPoint" />
          </mxGeometry>
        </mxCell>
        <mxCell id="l5cotHKUDbFg4a4MN0r3-17" value="" style="endArrow=classic;html=1;rounded=0;dashed=1;" edge="1" parent="1">
          <mxGeometry width="50" height="50" relative="1" as="geometry">
            <mxPoint x="-630" y="438" as="sourcePoint" />
            <mxPoint x="-630" y="470" as="targetPoint" />
          </mxGeometry>
        </mxCell>
        <mxCell id="l5cotHKUDbFg4a4MN0r3-18" value="" style="endArrow=classic;html=1;rounded=0;dashed=1;" edge="1" parent="1">
          <mxGeometry width="50" height="50" relative="1" as="geometry">
            <mxPoint x="-610" y="439" as="sourcePoint" />
            <mxPoint x="-610" y="471" as="targetPoint" />
          </mxGeometry>
        </mxCell>
        <mxCell id="l5cotHKUDbFg4a4MN0r3-19" value="" style="endArrow=classic;html=1;rounded=0;" edge="1" parent="1">
          <mxGeometry width="50" height="50" relative="1" as="geometry">
            <mxPoint x="-595" y="439" as="sourcePoint" />
            <mxPoint x="-595" y="471" as="targetPoint" />
          </mxGeometry>
        </mxCell>
        <mxCell id="l5cotHKUDbFg4a4MN0r3-20" value="" style="endArrow=classic;html=1;rounded=0;" edge="1" parent="1">
          <mxGeometry width="50" height="50" relative="1" as="geometry">
            <mxPoint x="-572" y="438" as="sourcePoint" />
            <mxPoint x="-572" y="399" as="targetPoint" />
          </mxGeometry>
        </mxCell>
        <mxCell id="l5cotHKUDbFg4a4MN0r3-21" value="" style="endArrow=classic;html=1;rounded=0;" edge="1" parent="1">
          <mxGeometry width="50" height="50" relative="1" as="geometry">
            <mxPoint x="-550" y="438" as="sourcePoint" />
            <mxPoint x="-550" y="399" as="targetPoint" />
          </mxGeometry>
        </mxCell>
        <mxCell id="l5cotHKUDbFg4a4MN0r3-22" value="" style="endArrow=classic;html=1;rounded=0;" edge="1" parent="1">
          <mxGeometry width="50" height="50" relative="1" as="geometry">
            <mxPoint x="-527" y="439" as="sourcePoint" />
            <mxPoint x="-527" y="400" as="targetPoint" />
          </mxGeometry>
        </mxCell>
        <mxCell id="l5cotHKUDbFg4a4MN0r3-23" value="" style="endArrow=classic;html=1;rounded=0;" edge="1" parent="1">
          <mxGeometry width="50" height="50" relative="1" as="geometry">
            <mxPoint x="-507" y="438" as="sourcePoint" />
            <mxPoint x="-507" y="399" as="targetPoint" />
          </mxGeometry>
        </mxCell>
        <mxCell id="l5cotHKUDbFg4a4MN0r3-24" value="&lt;font style=&quot;font-size: 16px;&quot;&gt;&lt;b&gt;旋转&lt;/b&gt;&lt;/font&gt;" style="text;html=1;align=center;verticalAlign=middle;resizable=0;points=[];autosize=1;strokeColor=none;fillColor=none;" vertex="1" parent="1">
          <mxGeometry x="-410.5" y="242" width="50" height="32" as="geometry" />
        </mxCell>
        <mxCell id="l5cotHKUDbFg4a4MN0r3-25" value="" style="endArrow=classic;html=1;rounded=0;" edge="1" parent="1">
          <mxGeometry width="50" height="50" relative="1" as="geometry">
            <mxPoint x="-190" y="298" as="sourcePoint" />
            <mxPoint x="-190" y="259" as="targetPoint" />
          </mxGeometry>
        </mxCell>
        <mxCell id="l5cotHKUDbFg4a4MN0r3-26" value="" style="endArrow=classic;html=1;rounded=0;" edge="1" parent="1">
          <mxGeometry width="50" height="50" relative="1" as="geometry">
            <mxPoint x="-285" y="300" as="sourcePoint" />
            <mxPoint y="300" as="targetPoint" />
          </mxGeometry>
        </mxCell>
        <mxCell id="l5cotHKUDbFg4a4MN0r3-27" value="" style="endArrow=classic;html=1;rounded=0;" edge="1" parent="1">
          <mxGeometry width="50" height="50" relative="1" as="geometry">
            <mxPoint x="-169" y="296" as="sourcePoint" />
            <mxPoint x="-169" y="257" as="targetPoint" />
          </mxGeometry>
        </mxCell>
        <mxCell id="l5cotHKUDbFg4a4MN0r3-28" value="" style="endArrow=classic;html=1;rounded=0;" edge="1" parent="1">
          <mxGeometry width="50" height="50" relative="1" as="geometry">
            <mxPoint x="-150" y="299" as="sourcePoint" />
            <mxPoint x="-150" y="260" as="targetPoint" />
          </mxGeometry>
        </mxCell>
        <mxCell id="l5cotHKUDbFg4a4MN0r3-29" value="" style="endArrow=classic;html=1;rounded=0;" edge="1" parent="1">
          <mxGeometry width="50" height="50" relative="1" as="geometry">
            <mxPoint x="-125" y="297" as="sourcePoint" />
            <mxPoint x="-125" y="329" as="targetPoint" />
          </mxGeometry>
        </mxCell>
        <mxCell id="l5cotHKUDbFg4a4MN0r3-30" value="" style="endArrow=classic;html=1;rounded=0;" edge="1" parent="1">
          <mxGeometry width="50" height="50" relative="1" as="geometry">
            <mxPoint x="-105" y="298" as="sourcePoint" />
            <mxPoint x="-105" y="330" as="targetPoint" />
          </mxGeometry>
        </mxCell>
        <mxCell id="l5cotHKUDbFg4a4MN0r3-31" value="" style="endArrow=classic;html=1;rounded=0;" edge="1" parent="1">
          <mxGeometry width="50" height="50" relative="1" as="geometry">
            <mxPoint x="-90" y="298" as="sourcePoint" />
            <mxPoint x="-90" y="330" as="targetPoint" />
          </mxGeometry>
        </mxCell>
        <mxCell id="l5cotHKUDbFg4a4MN0r3-32" value="" style="endArrow=classic;html=1;rounded=0;" edge="1" parent="1">
          <mxGeometry width="50" height="50" relative="1" as="geometry">
            <mxPoint x="-67" y="297" as="sourcePoint" />
            <mxPoint x="-67" y="258" as="targetPoint" />
          </mxGeometry>
        </mxCell>
        <mxCell id="l5cotHKUDbFg4a4MN0r3-33" value="" style="endArrow=classic;html=1;rounded=0;" edge="1" parent="1">
          <mxGeometry width="50" height="50" relative="1" as="geometry">
            <mxPoint x="-45" y="297" as="sourcePoint" />
            <mxPoint x="-45" y="258" as="targetPoint" />
          </mxGeometry>
        </mxCell>
        <mxCell id="l5cotHKUDbFg4a4MN0r3-34" value="" style="endArrow=classic;html=1;rounded=0;dashed=1;" edge="1" parent="1">
          <mxGeometry width="50" height="50" relative="1" as="geometry">
            <mxPoint x="-210" y="301" as="sourcePoint" />
            <mxPoint x="-210" y="258" as="targetPoint" />
          </mxGeometry>
        </mxCell>
        <mxCell id="l5cotHKUDbFg4a4MN0r3-35" value="" style="endArrow=classic;html=1;rounded=0;dashed=1;" edge="1" parent="1">
          <mxGeometry width="50" height="50" relative="1" as="geometry">
            <mxPoint x="-235" y="302" as="sourcePoint" />
            <mxPoint x="-235" y="260" as="targetPoint" />
          </mxGeometry>
        </mxCell>
        <mxCell id="l5cotHKUDbFg4a4MN0r3-36" value="" style="shape=flexArrow;endArrow=classic;html=1;rounded=0;" edge="1" parent="1">
          <mxGeometry width="50" height="50" relative="1" as="geometry">
            <mxPoint x="-417" y="431" as="sourcePoint" />
            <mxPoint x="-361" y="431" as="targetPoint" />
          </mxGeometry>
        </mxCell>
        <mxCell id="l5cotHKUDbFg4a4MN0r3-37" value="&lt;font style=&quot;font-size: 16px;&quot;&gt;&lt;b&gt;遮蔽&lt;/b&gt;&lt;/font&gt;" style="text;html=1;align=center;verticalAlign=middle;resizable=0;points=[];autosize=1;strokeColor=none;fillColor=none;" vertex="1" parent="1">
          <mxGeometry x="-414.5" y="382" width="50" height="32" as="geometry" />
        </mxCell>
        <mxCell id="l5cotHKUDbFg4a4MN0r3-38" value="" style="endArrow=classic;html=1;rounded=0;" edge="1" parent="1">
          <mxGeometry width="50" height="50" relative="1" as="geometry">
            <mxPoint x="-264" y="438" as="sourcePoint" />
            <mxPoint x="-264" y="401" as="targetPoint" />
          </mxGeometry>
        </mxCell>
        <mxCell id="l5cotHKUDbFg4a4MN0r3-39" value="" style="endArrow=classic;html=1;rounded=0;" edge="1" parent="1">
          <mxGeometry width="50" height="50" relative="1" as="geometry">
            <mxPoint x="-287" y="437" as="sourcePoint" />
            <mxPoint x="2" y="437" as="targetPoint" />
          </mxGeometry>
        </mxCell>
        <mxCell id="l5cotHKUDbFg4a4MN0r3-40" value="" style="endArrow=classic;html=1;rounded=0;" edge="1" parent="1">
          <mxGeometry width="50" height="50" relative="1" as="geometry">
            <mxPoint x="-164" y="440" as="sourcePoint" />
            <mxPoint x="-164" y="472" as="targetPoint" />
          </mxGeometry>
        </mxCell>
        <mxCell id="l5cotHKUDbFg4a4MN0r3-41" value="" style="endArrow=classic;html=1;rounded=0;" edge="1" parent="1">
          <mxGeometry width="50" height="50" relative="1" as="geometry">
            <mxPoint x="-141" y="439" as="sourcePoint" />
            <mxPoint x="-141" y="400" as="targetPoint" />
          </mxGeometry>
        </mxCell>
        <mxCell id="l5cotHKUDbFg4a4MN0r3-42" value="" style="endArrow=classic;html=1;rounded=0;" edge="1" parent="1">
          <mxGeometry width="50" height="50" relative="1" as="geometry">
            <mxPoint x="-119" y="439" as="sourcePoint" />
            <mxPoint x="-119" y="400" as="targetPoint" />
          </mxGeometry>
        </mxCell>
        <mxCell id="l5cotHKUDbFg4a4MN0r3-43" value="" style="endArrow=classic;html=1;rounded=0;" edge="1" parent="1">
          <mxGeometry width="50" height="50" relative="1" as="geometry">
            <mxPoint x="-96" y="440" as="sourcePoint" />
            <mxPoint x="-96" y="401" as="targetPoint" />
          </mxGeometry>
        </mxCell>
        <mxCell id="l5cotHKUDbFg4a4MN0r3-44" value="" style="endArrow=classic;html=1;rounded=0;" edge="1" parent="1">
          <mxGeometry width="50" height="50" relative="1" as="geometry">
            <mxPoint x="-76" y="439" as="sourcePoint" />
            <mxPoint x="-76" y="400" as="targetPoint" />
          </mxGeometry>
        </mxCell>
        <mxCell id="l5cotHKUDbFg4a4MN0r3-69" value="" style="endArrow=classic;html=1;rounded=0;" edge="1" parent="1">
          <mxGeometry width="50" height="50" relative="1" as="geometry">
            <mxPoint x="-686" y="714" as="sourcePoint" />
            <mxPoint x="-686" y="675" as="targetPoint" />
          </mxGeometry>
        </mxCell>
        <mxCell id="l5cotHKUDbFg4a4MN0r3-70" value="" style="endArrow=classic;html=1;rounded=0;" edge="1" parent="1">
          <mxGeometry width="50" height="50" relative="1" as="geometry">
            <mxPoint x="-723" y="714" as="sourcePoint" />
            <mxPoint x="-441" y="714" as="targetPoint" />
          </mxGeometry>
        </mxCell>
        <mxCell id="l5cotHKUDbFg4a4MN0r3-71" value="" style="endArrow=classic;html=1;rounded=0;" edge="1" parent="1">
          <mxGeometry width="50" height="50" relative="1" as="geometry">
            <mxPoint x="-665" y="712" as="sourcePoint" />
            <mxPoint x="-665" y="673" as="targetPoint" />
          </mxGeometry>
        </mxCell>
        <mxCell id="l5cotHKUDbFg4a4MN0r3-72" value="" style="endArrow=classic;html=1;rounded=0;" edge="1" parent="1">
          <mxGeometry width="50" height="50" relative="1" as="geometry">
            <mxPoint x="-646" y="715" as="sourcePoint" />
            <mxPoint x="-646" y="676" as="targetPoint" />
          </mxGeometry>
        </mxCell>
        <mxCell id="l5cotHKUDbFg4a4MN0r3-73" value="" style="endArrow=classic;html=1;rounded=0;" edge="1" parent="1">
          <mxGeometry width="50" height="50" relative="1" as="geometry">
            <mxPoint x="-621" y="713" as="sourcePoint" />
            <mxPoint x="-621" y="745" as="targetPoint" />
          </mxGeometry>
        </mxCell>
        <mxCell id="l5cotHKUDbFg4a4MN0r3-74" value="" style="endArrow=classic;html=1;rounded=0;dashed=1;" edge="1" parent="1">
          <mxGeometry width="50" height="50" relative="1" as="geometry">
            <mxPoint x="-601" y="714" as="sourcePoint" />
            <mxPoint x="-601" y="746" as="targetPoint" />
          </mxGeometry>
        </mxCell>
        <mxCell id="l5cotHKUDbFg4a4MN0r3-75" value="" style="endArrow=classic;html=1;rounded=0;" edge="1" parent="1">
          <mxGeometry width="50" height="50" relative="1" as="geometry">
            <mxPoint x="-586" y="714" as="sourcePoint" />
            <mxPoint x="-586" y="746" as="targetPoint" />
          </mxGeometry>
        </mxCell>
        <mxCell id="l5cotHKUDbFg4a4MN0r3-76" value="" style="endArrow=classic;html=1;rounded=0;" edge="1" parent="1">
          <mxGeometry width="50" height="50" relative="1" as="geometry">
            <mxPoint x="-563" y="713" as="sourcePoint" />
            <mxPoint x="-563" y="674" as="targetPoint" />
          </mxGeometry>
        </mxCell>
        <mxCell id="l5cotHKUDbFg4a4MN0r3-77" value="" style="endArrow=classic;html=1;rounded=0;" edge="1" parent="1">
          <mxGeometry width="50" height="50" relative="1" as="geometry">
            <mxPoint x="-541" y="713" as="sourcePoint" />
            <mxPoint x="-541" y="674" as="targetPoint" />
          </mxGeometry>
        </mxCell>
        <mxCell id="l5cotHKUDbFg4a4MN0r3-78" value="" style="endArrow=classic;html=1;rounded=0;dashed=1;" edge="1" parent="1">
          <mxGeometry width="50" height="50" relative="1" as="geometry">
            <mxPoint x="-518" y="714" as="sourcePoint" />
            <mxPoint x="-518" y="675" as="targetPoint" />
          </mxGeometry>
        </mxCell>
        <mxCell id="l5cotHKUDbFg4a4MN0r3-79" value="" style="endArrow=classic;html=1;rounded=0;" edge="1" parent="1">
          <mxGeometry width="50" height="50" relative="1" as="geometry">
            <mxPoint x="-498" y="713" as="sourcePoint" />
            <mxPoint x="-498" y="674" as="targetPoint" />
          </mxGeometry>
        </mxCell>
        <mxCell id="l5cotHKUDbFg4a4MN0r3-80" value="" style="shape=flexArrow;endArrow=classic;html=1;rounded=0;" edge="1" parent="1">
          <mxGeometry width="50" height="50" relative="1" as="geometry">
            <mxPoint x="-408" y="706" as="sourcePoint" />
            <mxPoint x="-352" y="706" as="targetPoint" />
          </mxGeometry>
        </mxCell>
        <mxCell id="l5cotHKUDbFg4a4MN0r3-81" value="&lt;font style=&quot;font-size: 16px;&quot;&gt;&lt;b&gt;擦除&lt;/b&gt;&lt;/font&gt;" style="text;html=1;align=center;verticalAlign=middle;resizable=0;points=[];autosize=1;strokeColor=none;fillColor=none;" vertex="1" parent="1">
          <mxGeometry x="-405.5" y="657" width="50" height="32" as="geometry" />
        </mxCell>
        <mxCell id="l5cotHKUDbFg4a4MN0r3-82" value="" style="endArrow=classic;html=1;rounded=0;" edge="1" parent="1">
          <mxGeometry width="50" height="50" relative="1" as="geometry">
            <mxPoint x="-248" y="719" as="sourcePoint" />
            <mxPoint x="-248" y="680" as="targetPoint" />
          </mxGeometry>
        </mxCell>
        <mxCell id="l5cotHKUDbFg4a4MN0r3-83" value="" style="endArrow=classic;html=1;rounded=0;" edge="1" parent="1">
          <mxGeometry width="50" height="50" relative="1" as="geometry">
            <mxPoint x="-285" y="719" as="sourcePoint" />
            <mxPoint x="15" y="719" as="targetPoint" />
          </mxGeometry>
        </mxCell>
        <mxCell id="l5cotHKUDbFg4a4MN0r3-84" value="" style="endArrow=classic;html=1;rounded=0;" edge="1" parent="1">
          <mxGeometry width="50" height="50" relative="1" as="geometry">
            <mxPoint x="-227" y="717" as="sourcePoint" />
            <mxPoint x="-227" y="678" as="targetPoint" />
          </mxGeometry>
        </mxCell>
        <mxCell id="l5cotHKUDbFg4a4MN0r3-85" value="" style="endArrow=classic;html=1;rounded=0;" edge="1" parent="1">
          <mxGeometry width="50" height="50" relative="1" as="geometry">
            <mxPoint x="-208" y="720" as="sourcePoint" />
            <mxPoint x="-208" y="681" as="targetPoint" />
          </mxGeometry>
        </mxCell>
        <mxCell id="l5cotHKUDbFg4a4MN0r3-86" value="" style="endArrow=classic;html=1;rounded=0;" edge="1" parent="1">
          <mxGeometry width="50" height="50" relative="1" as="geometry">
            <mxPoint x="-183" y="718" as="sourcePoint" />
            <mxPoint x="-183" y="750" as="targetPoint" />
          </mxGeometry>
        </mxCell>
        <mxCell id="l5cotHKUDbFg4a4MN0r3-87" value="" style="endArrow=classic;html=1;rounded=0;" edge="1" parent="1">
          <mxGeometry width="50" height="50" relative="1" as="geometry">
            <mxPoint x="-148" y="719" as="sourcePoint" />
            <mxPoint x="-148" y="751" as="targetPoint" />
          </mxGeometry>
        </mxCell>
        <mxCell id="l5cotHKUDbFg4a4MN0r3-88" value="" style="endArrow=classic;html=1;rounded=0;" edge="1" parent="1">
          <mxGeometry width="50" height="50" relative="1" as="geometry">
            <mxPoint x="-125" y="718" as="sourcePoint" />
            <mxPoint x="-125" y="679" as="targetPoint" />
          </mxGeometry>
        </mxCell>
        <mxCell id="l5cotHKUDbFg4a4MN0r3-89" value="" style="endArrow=classic;html=1;rounded=0;" edge="1" parent="1">
          <mxGeometry width="50" height="50" relative="1" as="geometry">
            <mxPoint x="-103" y="718" as="sourcePoint" />
            <mxPoint x="-103" y="679" as="targetPoint" />
          </mxGeometry>
        </mxCell>
        <mxCell id="l5cotHKUDbFg4a4MN0r3-90" value="" style="endArrow=classic;html=1;rounded=0;" edge="1" parent="1">
          <mxGeometry width="50" height="50" relative="1" as="geometry">
            <mxPoint x="-64" y="719" as="sourcePoint" />
            <mxPoint x="-64" y="680" as="targetPoint" />
          </mxGeometry>
        </mxCell>
      </root>
    </mxGraphModel>
  </diagram>
</mxfile>
